<svg width="215" height="30" viewBox="0 0 215 30" fill="none" xmlns="http://www.w3.org/2000/svg">
<g clip-path="url(#clip0)">
<path d="M43.166 0L23.9456 24.5842V10.0982L24.4063 9.72878H30.8009V7.53034H24.5568L23.9456 7.19282V2.41281H32.9218L34.687 0.209809H0L2.04792 2.41281H21.6013V23.9958L10.5954 9.72878H18.486V7.53034H5.84274L22.8191 29.1088H193.996L215 0H43.166ZM192.455 27.0153H25.0585L44.4158 2.34439H210.48L192.455 27.0153Z" fill="#120F0F"/>
<path d="M47.6682 22.9927V8.50671H45.2827V5.91602H49.7708V22.9927H47.6682Z" fill="#120F0F"/>
<path d="M57.2097 22.993V18.9017H51.4673V17.6429L58.3408 5.49219H59.2759V16.2837H60.8859V18.9017H59.2759V22.993H57.2097ZM54.505 16.2837H57.2097V11.3121L54.505 16.2837Z" fill="#120F0F"/>
<path d="M61.6479 17.925V15.3799H66.3823V17.925H61.6479Z" fill="#120F0F"/>
<path d="M67.4448 22.0623L71.7231 16.0234C72.2887 15.2161 72.7174 14.5775 73.0048 14.1077C73.2921 13.6425 73.5339 13.1317 73.73 12.5843C73.9261 12.037 74.0219 11.4532 74.0219 10.8374C74.0219 10.0301 73.8166 9.37334 73.4016 8.87618C72.9865 8.37903 72.4483 8.12817 71.7778 8.12817C71.1895 8.12817 70.6923 8.3471 70.2955 8.7804C69.8941 9.21826 69.6296 9.81577 69.5019 10.5775L67.5041 9.88874C67.7413 8.5113 68.243 7.43032 69.0138 6.65494C69.7847 5.87956 70.747 5.4873 71.901 5.4873C72.7129 5.4873 73.4426 5.71536 74.0857 6.16691C74.7289 6.61845 75.226 7.24788 75.5863 8.05975C75.9467 8.86706 76.1245 9.79752 76.1245 10.842C76.1245 11.9823 75.9102 13.0404 75.4769 14.0165C75.0481 14.9926 74.3503 16.1511 73.3833 17.5012L71.3354 20.3792H76.1063V22.9973H67.4448V22.0623Z" fill="#120F0F"/>
<path d="M77.2515 17.925V15.3799H81.9859V17.925H77.2515Z" fill="#120F0F"/>
<path d="M84.1888 21.0178C83.418 19.4168 83.0303 17.2686 83.0303 14.573C83.0303 11.8135 83.418 9.61052 84.1888 7.95941C84.9596 6.31286 86.1455 5.4873 87.751 5.4873C89.3428 5.4873 90.5241 6.31286 91.295 7.95941C92.0658 9.61052 92.4535 11.8135 92.4535 14.573C92.4535 17.2686 92.0658 19.4168 91.295 21.0178C90.5241 22.6187 89.3428 23.4215 87.751 23.4215C86.1455 23.4169 84.9596 22.6187 84.1888 21.0178ZM89.6849 19.2344C90.1273 18.1717 90.3462 16.6346 90.3462 14.6186C90.3462 12.525 90.1273 10.915 89.694 9.79296C89.2561 8.66637 88.6085 8.10536 87.751 8.10536C86.8798 8.10536 86.223 8.66181 85.7897 9.78384C85.3519 10.9013 85.1375 12.5159 85.1375 14.6231C85.1375 16.6391 85.3564 18.1762 85.7989 19.2389C86.2413 20.3017 86.8935 20.8308 87.751 20.8308C88.5994 20.8262 89.2425 20.2971 89.6849 19.2344Z" fill="#120F0F"/>
<path d="M94.2777 21.0178C93.5068 19.4168 93.1191 17.2686 93.1191 14.573C93.1191 11.8135 93.5068 9.61052 94.2777 7.95941C95.0485 6.31286 96.2344 5.4873 97.8399 5.4873C99.4317 5.4873 100.613 6.31286 101.384 7.95941C102.155 9.61052 102.542 11.8135 102.542 14.573C102.542 17.2686 102.155 19.4168 101.384 21.0178C100.613 22.6187 99.4317 23.4215 97.8399 23.4215C96.2389 23.4169 95.0485 22.6187 94.2777 21.0178ZM99.7738 19.2344C100.216 18.1717 100.435 16.6346 100.435 14.6186C100.435 12.525 100.216 10.915 99.7829 9.79296C99.345 8.66637 98.6973 8.10536 97.8399 8.10536C96.9687 8.10536 96.3119 8.66181 95.8786 9.78384C95.4407 10.9013 95.2264 12.5159 95.2264 14.6231C95.2264 16.6391 95.4453 18.1762 95.8877 19.2389C96.3301 20.3017 96.9824 20.8308 97.8399 20.8308C98.6882 20.8262 99.3359 20.2971 99.7738 19.2344Z" fill="#120F0F"/>
<path d="M103.231 22.0623L107.51 16.0234C108.075 15.2161 108.504 14.5775 108.791 14.1077C109.079 13.6425 109.32 13.1317 109.517 12.5843C109.713 12.037 109.809 11.4532 109.809 10.8374C109.809 10.0301 109.603 9.37334 109.188 8.87618C108.773 8.37903 108.235 8.12817 107.564 8.12817C106.976 8.12817 106.479 8.3471 106.082 8.7804C105.681 9.21826 105.416 9.81577 105.288 10.5775L103.291 9.88874C103.528 8.5113 104.03 7.43032 104.8 6.65494C105.571 5.87956 106.534 5.4873 107.688 5.4873C108.499 5.4873 109.229 5.71536 109.872 6.16691C110.515 6.61845 111.013 7.24788 111.373 8.05975C111.733 8.86706 111.911 9.79752 111.911 10.842C111.911 11.9823 111.697 13.0404 111.263 14.0165C110.835 14.9926 110.137 16.1511 109.17 17.5012L107.122 20.3792H111.893V22.9973H103.231V22.0623Z" fill="#120F0F"/>
<path d="M114.62 22.6467C113.918 22.1313 113.357 21.3742 112.933 20.3753L114.752 18.9249C115.012 19.5132 115.345 19.9693 115.751 20.2932C116.157 20.617 116.595 20.7812 117.07 20.7812C117.799 20.7812 118.374 20.4984 118.794 19.9374C119.213 19.3764 119.423 18.6238 119.423 17.6888C119.423 16.7538 119.213 15.9921 118.794 15.4037C118.374 14.8153 117.818 14.5234 117.124 14.5234C116.686 14.5234 116.262 14.6283 115.852 14.8336C115.441 15.0388 115.081 15.317 114.775 15.6637L113.343 15.1392L113.749 5.91211H120.978V8.5028H115.624L115.482 12.3569C115.719 12.2292 115.993 12.1289 116.303 12.0468C116.613 11.9647 116.924 11.9282 117.229 11.9282C118.032 11.9282 118.757 12.1562 119.405 12.6169C120.052 13.0776 120.563 13.7344 120.942 14.5918C121.32 15.4493 121.507 16.4391 121.507 17.5657C121.507 18.7059 121.32 19.723 120.951 20.6079C120.582 21.4973 120.057 22.186 119.387 22.6786C118.716 23.1712 117.941 23.4175 117.07 23.4175C116.139 23.4175 115.323 23.1621 114.62 22.6467Z" fill="#120F0F"/>
<path d="M124.431 22.646C123.729 22.1306 123.168 21.3735 122.744 20.3746L124.564 18.9242C124.824 19.5126 125.156 19.9687 125.562 20.2925C125.968 20.6164 126.406 20.7806 126.881 20.7806C127.61 20.7806 128.185 20.4978 128.605 19.9368C129.024 19.3758 129.234 18.6232 129.234 17.6882C129.234 16.7531 129.024 15.9914 128.605 15.4031C128.185 14.8147 127.629 14.5228 126.935 14.5228C126.497 14.5228 126.073 14.6277 125.663 14.8329C125.252 15.0382 124.892 15.3164 124.586 15.663L123.15 15.1431L123.556 5.91602H130.785V8.50671H125.43L125.289 12.3608C125.526 12.2331 125.8 12.1328 126.11 12.0507C126.42 11.9686 126.73 11.9321 127.036 11.9321C127.838 11.9321 128.564 12.1601 129.211 12.6208C129.859 13.0815 130.37 13.7383 130.748 14.5957C131.127 15.4532 131.314 16.443 131.314 17.5696C131.314 18.7098 131.127 19.727 130.757 20.6118C130.388 21.5012 129.863 22.1899 129.193 22.6825C128.523 23.1751 127.747 23.4214 126.876 23.4214C125.946 23.4169 125.129 23.1614 124.431 22.646Z" fill="#120F0F"/>
<path d="M132.655 17.925V15.3799H137.389V17.925H132.655Z" fill="#120F0F"/>
<path d="M138.452 22.0623L142.73 16.0234C143.296 15.2161 143.724 14.5775 144.012 14.1077C144.299 13.6425 144.541 13.1317 144.737 12.5843C144.933 12.037 145.029 11.4532 145.029 10.8374C145.029 10.0301 144.823 9.37334 144.408 8.87618C143.993 8.37903 143.455 8.12817 142.785 8.12817C142.196 8.12817 141.699 8.3471 141.302 8.7804C140.901 9.21826 140.636 9.81577 140.509 10.5775L138.511 9.88874C138.748 8.5113 139.25 7.43032 140.021 6.65494C140.791 5.87956 141.754 5.4873 142.908 5.4873C143.72 5.4873 144.449 5.71536 145.093 6.16691C145.736 6.61845 146.233 7.24788 146.593 8.05975C146.954 8.86706 147.131 9.79752 147.131 10.842C147.131 11.9823 146.917 13.0404 146.484 14.0165C146.055 14.9926 145.357 16.1511 144.39 17.5012L142.342 20.3792H147.113V22.9973H138.452V22.0623Z" fill="#120F0F"/>
<path d="M148.263 17.925V15.3799H152.997V17.925H148.263Z" fill="#120F0F"/>
<path d="M155.2 21.0178C154.429 19.4168 154.042 17.2686 154.042 14.573C154.042 11.8135 154.429 9.61052 155.2 7.95941C155.971 6.31286 157.157 5.4873 158.762 5.4873C160.354 5.4873 161.535 6.31286 162.306 7.95941C163.077 9.61052 163.465 11.8135 163.465 14.573C163.465 17.2686 163.077 19.4168 162.306 21.0178C161.535 22.6187 160.354 23.4215 158.762 23.4215C157.157 23.4169 155.971 22.6187 155.2 21.0178ZM160.696 19.2344C161.139 18.1717 161.357 16.6346 161.357 14.6186C161.357 12.525 161.139 10.915 160.705 9.79296C160.267 8.66637 159.62 8.10536 158.762 8.10536C157.891 8.10536 157.234 8.66181 156.801 9.78384C156.363 10.9013 156.149 12.5159 156.149 14.6231C156.149 16.6391 156.368 18.1762 156.81 19.2389C157.252 20.3017 157.905 20.8308 158.762 20.8308C159.606 20.8262 160.254 20.2971 160.696 19.2344Z" fill="#120F0F"/>
<path d="M165.289 21.0178C164.519 19.4168 164.131 17.2686 164.131 14.573C164.131 11.8135 164.519 9.61052 165.289 7.95941C166.06 6.31286 167.246 5.4873 168.852 5.4873C170.443 5.4873 171.625 6.31286 172.396 7.95941C173.166 9.61052 173.554 11.8135 173.554 14.573C173.554 17.2686 173.166 19.4168 172.396 21.0178C171.625 22.6187 170.443 23.4215 168.852 23.4215C167.251 23.4169 166.06 22.6187 165.289 21.0178ZM170.785 19.2344C171.228 18.1717 171.447 16.6346 171.447 14.6186C171.447 12.525 171.228 10.915 170.795 9.79296C170.357 8.66637 169.709 8.10536 168.852 8.10536C167.98 8.10536 167.324 8.66181 166.89 9.78384C166.452 10.9013 166.238 12.5159 166.238 14.6231C166.238 16.6391 166.457 18.1762 166.899 19.2389C167.342 20.3017 167.994 20.8308 168.852 20.8308C169.7 20.8262 170.343 20.2971 170.785 19.2344Z" fill="#120F0F"/>
<path d="M180.482 6.18971C181.116 6.6595 181.618 7.30261 181.974 8.12817C182.334 8.95372 182.512 9.8705 182.512 10.8876C182.512 11.4578 182.416 12.1419 182.229 12.931C182.042 13.7246 181.773 14.5182 181.436 15.3073L178.184 22.9882H175.903L178.749 16.2104C178.539 16.256 178.325 16.2834 178.115 16.2834C177.386 16.2834 176.715 16.0599 176.108 15.6175C175.502 15.175 175.023 14.5456 174.676 13.7292C174.33 12.9127 174.156 11.9732 174.156 10.9104C174.156 9.87962 174.334 8.95372 174.694 8.12817C175.055 7.30261 175.547 6.6595 176.177 6.18971C176.806 5.71992 177.522 5.4873 178.325 5.4873C179.128 5.4873 179.844 5.71992 180.482 6.18971ZM179.871 12.9538C180.254 12.4475 180.446 11.7816 180.446 10.956C180.446 10.1305 180.254 9.45544 179.871 8.93548C179.488 8.41095 178.986 8.15097 178.362 8.15097C177.723 8.15097 177.208 8.41095 176.815 8.93548C176.419 9.46 176.222 10.1305 176.222 10.956C176.222 11.7816 176.419 12.4475 176.806 12.9538C177.194 13.4601 177.714 13.7155 178.362 13.7155C178.982 13.7155 179.488 13.4646 179.871 12.9538Z" fill="#120F0F"/>
<path d="M185.28 22.6467C184.578 22.1313 184.017 21.3742 183.593 20.3753L185.413 18.9249C185.673 19.5132 186.006 19.9693 186.412 20.2932C186.817 20.617 187.255 20.7812 187.73 20.7812C188.459 20.7812 189.034 20.4984 189.454 19.9374C189.873 19.3764 190.083 18.6238 190.083 17.6888C190.083 16.7538 189.873 15.9921 189.454 15.4037C189.034 14.8153 188.478 14.5234 187.784 14.5234C187.347 14.5234 186.922 14.6283 186.512 14.8336C186.101 15.0388 185.741 15.317 185.435 15.6637L184.003 15.1392L184.409 5.91211H191.639V8.5028H186.275L186.133 12.3569C186.37 12.2292 186.644 12.1289 186.954 12.0468C187.264 11.9647 187.575 11.9282 187.88 11.9282C188.683 11.9282 189.408 12.1562 190.056 12.6169C190.703 13.0776 191.214 13.7344 191.593 14.5918C191.971 15.4493 192.158 16.4391 192.158 17.5657C192.158 18.7059 191.971 19.723 191.602 20.6079C191.233 21.4973 190.708 22.186 190.038 22.6786C189.367 23.1712 188.592 23.4175 187.721 23.4175C186.795 23.4175 185.978 23.1621 185.28 22.6467Z" fill="#120F0F"/>
</g>
<defs>
<clipPath id="clip0">
<rect width="215" height="29.1088" fill="white"/>
</clipPath>
</defs>
</svg>
