<svg width="215" height="28" viewBox="0 0 215 28" fill="none" xmlns="http://www.w3.org/2000/svg">
<path d="M43.166 0L23.9456 23.6478V9.71357L24.4063 9.35819H30.8009V7.2435H24.5568L23.9456 6.91883V2.3209H32.9218L34.687 0.201818H0L2.04792 2.3209H21.6013V23.0818L10.5954 9.35819H18.486V7.2435H5.84274L22.8191 28H193.996L215 0H43.166ZM192.455 25.9862H25.0585L44.4158 2.25509H210.48L192.455 25.9862Z" fill="#231F20"/>
<path d="M47.6677 22.1161V8.18635H45.2822V5.69434H49.7703V22.1205H47.6677V22.1161Z" fill="#231F20"/>
<path d="M57.2092 22.1164V18.181H51.4668V16.9701L58.3403 5.28223H59.2754V15.6671H60.8854V18.1854H59.2754V22.1208H57.2092V22.1164ZM54.5045 15.6671H57.2092V10.8849L54.5045 15.6671Z" fill="#231F20"/>
<path d="M61.6475 17.2411V14.793H66.3819V17.2411H61.6475Z" fill="#231F20"/>
<path d="M67.4443 21.2258L71.7226 15.417C72.2882 14.6404 72.7169 14.0262 73.0043 13.5743C73.2916 13.1268 73.5334 12.6354 73.7295 12.1089C73.9256 11.5824 74.0214 11.0209 74.0214 10.4286C74.0214 9.65202 73.8161 9.02024 73.4011 8.54202C72.986 8.0638 72.4478 7.8225 71.7773 7.8225C71.189 7.8225 70.6918 8.03309 70.295 8.44989C69.8936 8.87107 69.6291 9.44581 69.5014 10.1785L67.5036 9.51601C67.7408 8.19103 68.2425 7.15123 69.0133 6.40539C69.7842 5.65954 70.7466 5.28223 71.9005 5.28223C72.7124 5.28223 73.4421 5.50159 74.0852 5.93594C74.7284 6.37029 75.2255 6.97574 75.5858 7.75669C75.9462 8.53324 76.124 9.42826 76.124 10.433C76.124 11.5298 75.9097 12.5477 75.4764 13.4866C75.0476 14.4254 74.3498 15.5398 73.3828 16.8385L71.3349 19.6069H76.1058V22.1252H67.4443V21.2258Z" fill="#231F20"/>
<path d="M77.251 17.2411V14.793H81.9854V17.2411H77.251Z" fill="#231F20"/>
<path d="M84.1878 20.2162C83.417 18.6763 83.0293 16.6098 83.0293 14.0169C83.0293 11.3626 83.417 9.2435 84.1878 7.65528C84.9586 6.07145 86.1445 5.27734 87.75 5.27734C89.3418 5.27734 90.5232 6.07145 91.294 7.65528C92.0648 9.2435 92.4525 11.3626 92.4525 14.0169C92.4525 16.6098 92.0648 18.6763 91.294 20.2162C90.5232 21.7562 89.3418 22.5284 87.75 22.5284C86.1445 22.5284 84.9586 21.7562 84.1878 20.2162ZM89.6839 18.5008C90.1263 17.4785 90.3453 16 90.3453 14.0608C90.3453 12.047 90.1263 10.4983 89.693 9.41899C89.2552 8.33532 88.6075 7.79568 87.75 7.79568C86.8789 7.79568 86.2221 8.33093 85.7888 9.41022C85.3509 10.4851 85.1365 12.0382 85.1365 14.0652C85.1365 16.0044 85.3555 17.4829 85.7979 18.5052C86.2403 19.5274 86.8925 20.0364 87.75 20.0364C88.5984 20.032 89.2415 19.523 89.6839 18.5008Z" fill="#231F20"/>
<path d="M94.2776 20.2162C93.5068 18.6763 93.1191 16.6098 93.1191 14.0169C93.1191 11.3626 93.5068 9.2435 94.2776 7.65528C95.0485 6.07145 96.2343 5.27734 97.8398 5.27734C99.4317 5.27734 100.613 6.07145 101.384 7.65528C102.155 9.2435 102.542 11.3626 102.542 14.0169C102.542 16.6098 102.155 18.6763 101.384 20.2162C100.613 21.7562 99.4317 22.5284 97.8398 22.5284C96.2389 22.5284 95.0485 21.7562 94.2776 20.2162ZM99.7737 18.5008C100.216 17.4785 100.435 16 100.435 14.0608C100.435 12.047 100.216 10.4983 99.7829 9.41899C99.345 8.33532 98.6973 7.79568 97.8398 7.79568C96.9687 7.79568 96.3119 8.33093 95.8786 9.41022C95.4407 10.4851 95.2264 12.0382 95.2264 14.0652C95.2264 16.0044 95.4453 17.4829 95.8877 18.5052C96.3301 19.5274 96.9824 20.0364 97.8398 20.0364C98.6882 20.032 99.3359 19.523 99.7737 18.5008Z" fill="#231F20"/>
<path d="M103.23 21.2258L107.509 15.417C108.074 14.6404 108.503 14.0262 108.79 13.5743C109.078 13.1268 109.319 12.6354 109.516 12.1089C109.712 11.5824 109.808 11.0209 109.808 10.4286C109.808 9.65202 109.602 9.02024 109.187 8.54202C108.772 8.0638 108.234 7.8225 107.563 7.8225C106.975 7.8225 106.478 8.03309 106.081 8.44989C105.68 8.87107 105.415 9.44581 105.288 10.1785L103.29 9.51601C103.527 8.19103 104.029 7.15123 104.799 6.40539C105.57 5.65954 106.533 5.28223 107.687 5.28223C108.499 5.28223 109.228 5.50159 109.871 5.93594C110.514 6.37029 111.012 6.97574 111.372 7.75669C111.732 8.53324 111.91 9.42826 111.91 10.433C111.91 11.5298 111.696 12.5477 111.263 13.4866C110.834 14.4254 110.136 15.5398 109.169 16.8385L107.121 19.6069H111.892V22.1252H103.23V21.2258Z" fill="#231F20"/>
<path d="M114.619 21.7827C113.917 21.2869 113.356 20.5586 112.932 19.5978L114.752 18.2026C115.011 18.7686 115.344 19.2073 115.75 19.5188C116.156 19.8303 116.594 19.9883 117.069 19.9883C117.798 19.9883 118.373 19.7163 118.793 19.1766C119.212 18.637 119.422 17.9131 119.422 17.0137C119.422 16.1143 119.212 15.3816 118.793 14.8156C118.373 14.2496 117.817 13.9688 117.123 13.9688C116.685 13.9688 116.261 14.0698 115.851 14.2672C115.44 14.4646 115.08 14.7322 114.774 15.0657L113.342 14.5611L113.748 5.68555H120.977V8.17756H115.623L115.481 11.8849C115.718 11.762 115.992 11.6655 116.302 11.5865C116.612 11.5075 116.923 11.4724 117.228 11.4724C118.031 11.4724 118.756 11.6918 119.404 12.1349C120.051 12.5781 120.562 13.2098 120.941 14.0347C121.319 14.8595 121.506 15.8115 121.506 16.8952C121.506 17.992 121.319 18.9704 120.95 19.8216C120.581 20.6771 120.056 21.3396 119.386 21.8134C118.715 22.2872 117.94 22.5242 117.069 22.5242C116.138 22.5285 115.322 22.2785 114.619 21.7827Z" fill="#231F20"/>
<path d="M124.43 21.7822C123.727 21.2864 123.166 20.5581 122.742 19.5973L124.562 18.2021C124.822 18.7681 125.155 19.2068 125.561 19.5184C125.967 19.8299 126.405 19.9878 126.879 19.9878C127.609 19.9878 128.184 19.7158 128.603 19.1761C129.023 18.6365 129.233 17.9126 129.233 17.0132C129.233 16.1138 129.023 15.3811 128.603 14.8151C128.184 14.2492 127.627 13.9684 126.934 13.9684C126.496 13.9684 126.072 14.0693 125.661 14.2667C125.251 14.4641 124.89 14.7318 124.585 15.0652L123.148 14.565L123.554 5.68945H130.783V8.18146H125.429L125.287 11.8888C125.524 11.7659 125.798 11.6694 126.108 11.5904C126.418 11.5115 126.729 11.4764 127.034 11.4764C127.837 11.4764 128.562 11.6957 129.21 12.1388C129.857 12.582 130.368 13.2137 130.747 14.0386C131.125 14.8634 131.312 15.8154 131.312 16.8991C131.312 17.9959 131.125 18.9743 130.756 19.8255C130.387 20.681 129.862 21.3435 129.192 21.8173C128.521 22.2911 127.746 22.5281 126.875 22.5281C125.944 22.5281 125.128 22.278 124.43 21.7822Z" fill="#231F20"/>
<path d="M132.654 17.2411V14.793H137.389V17.2411H132.654Z" fill="#231F20"/>
<path d="M138.452 21.2258L142.73 15.417C143.296 14.6404 143.725 14.0262 144.012 13.5743C144.299 13.1268 144.541 12.6354 144.737 12.1089C144.933 11.5824 145.029 11.0209 145.029 10.4286C145.029 9.65202 144.824 9.02024 144.409 8.54202C143.994 8.0638 143.456 7.8225 142.785 7.8225C142.197 7.8225 141.7 8.03309 141.303 8.44989C140.901 8.87107 140.637 9.44581 140.509 10.1785L138.511 9.51601C138.749 8.19103 139.25 7.15123 140.021 6.40539C140.792 5.65954 141.754 5.28223 142.908 5.28223C143.72 5.28223 144.45 5.50159 145.093 5.93594C145.736 6.37029 146.233 6.97574 146.594 7.75669C146.954 8.53324 147.132 9.42826 147.132 10.433C147.132 11.5298 146.917 12.5477 146.484 13.4866C146.055 14.4254 145.358 15.5398 144.391 16.8385L142.343 19.6069H147.114V22.1252H138.452V21.2258Z" fill="#231F20"/>
<path d="M148.263 17.2411V14.793H152.997V17.2411H148.263Z" fill="#231F20"/>
<path d="M155.2 20.2162C154.429 18.6763 154.041 16.6098 154.041 14.0169C154.041 11.3626 154.429 9.2435 155.2 7.65528C155.97 6.07145 157.156 5.27734 158.762 5.27734C160.354 5.27734 161.535 6.07145 162.306 7.65528C163.076 9.2435 163.464 11.3626 163.464 14.0169C163.464 16.6098 163.076 18.6763 162.306 20.2162C161.535 21.7562 160.354 22.5284 158.762 22.5284C157.156 22.5284 155.97 21.7562 155.2 20.2162ZM160.696 18.5008C161.138 17.4785 161.357 16 161.357 14.0608C161.357 12.047 161.138 10.4983 160.705 9.41899C160.267 8.33532 159.619 7.79568 158.762 7.79568C157.891 7.79568 157.234 8.33093 156.8 9.41022C156.363 10.4851 156.148 12.0382 156.148 14.0652C156.148 16.0044 156.367 17.4829 156.81 18.5052C157.252 19.5274 157.904 20.0364 158.762 20.0364C159.606 20.032 160.253 19.523 160.696 18.5008Z" fill="#231F20"/>
<path d="M165.288 20.2162C164.518 18.6763 164.13 16.6098 164.13 14.0169C164.13 11.3626 164.518 9.2435 165.288 7.65528C166.059 6.07145 167.245 5.27734 168.851 5.27734C170.442 5.27734 171.624 6.07145 172.395 7.65528C173.165 9.2435 173.553 11.3626 173.553 14.0169C173.553 16.6098 173.165 18.6763 172.395 20.2162C171.624 21.7562 170.442 22.5284 168.851 22.5284C167.25 22.5284 166.059 21.7562 165.288 20.2162ZM170.785 18.5008C171.227 17.4785 171.446 16 171.446 14.0608C171.446 12.047 171.227 10.4983 170.794 9.41899C170.356 8.33532 169.708 7.79568 168.851 7.79568C167.979 7.79568 167.323 8.33093 166.889 9.41022C166.451 10.4851 166.237 12.0382 166.237 14.0652C166.237 16.0044 166.456 17.4829 166.898 18.5052C167.341 19.5274 167.993 20.0364 168.851 20.0364C169.699 20.032 170.342 19.523 170.785 18.5008Z" fill="#231F20"/>
<path d="M180.482 5.95299C181.116 6.40489 181.617 7.0235 181.973 7.81761C182.333 8.61172 182.511 9.49358 182.511 10.472C182.511 11.0204 182.415 11.6785 182.228 12.4375C182.041 13.2009 181.772 13.9643 181.435 14.7233L178.183 22.1116H175.902L178.748 15.592C178.538 15.6359 178.324 15.6622 178.114 15.6622C177.385 15.6622 176.714 15.4472 176.107 15.0216C175.501 14.5961 175.022 13.9906 174.675 13.2053C174.329 12.4199 174.155 11.5161 174.155 10.4939C174.155 9.50235 174.333 8.61172 174.693 7.81761C175.054 7.0235 175.546 6.40489 176.176 5.95299C176.805 5.5011 177.521 5.27734 178.324 5.27734C179.127 5.27734 179.843 5.50549 180.482 5.95299ZM179.87 12.4638C180.253 11.9768 180.445 11.3363 180.445 10.5422C180.445 9.74804 180.253 9.09872 179.87 8.59856C179.487 8.09402 178.985 7.84394 178.361 7.84394C177.722 7.84394 177.207 8.09402 176.814 8.59856C176.418 9.1031 176.221 9.74804 176.221 10.5422C176.221 11.3363 176.418 11.9768 176.805 12.4638C177.193 12.9508 177.713 13.1965 178.361 13.1965C178.981 13.1921 179.487 12.9508 179.87 12.4638Z" fill="#231F20"/>
<path d="M188.646 22.1164V18.181H182.899V16.9701L189.773 5.28223H190.708V15.6671H192.318V18.1854H190.708V22.1208H188.646V22.1164ZM185.942 15.6671H188.646V10.8849L185.942 15.6671Z" fill="#231F20"/>
</svg>
